<svg width="898" height="128" viewBox="0 0 898 128" fill="none" xmlns="http://www.w3.org/2000/svg">
<path d="M95.44 83C97.6872 86.2579 98.8458 90.1434 98.75 94.1C98.75 104.1 94.63 111.62 86.39 116.66C78.15 121.7 67.5467 124.223 54.58 124.23H0L18.91 29.66H69C80.08 29.66 88.5 31.62 94.26 35.54C100.02 39.46 102.903 45.02 102.91 52.22C103.007 57.2506 101.439 62.1723 98.45 66.22C95.2324 70.4168 90.9365 73.662 86.02 75.61C89.7755 77.1677 93.0331 79.7233 95.44 83ZM64.17 99.7C65.1578 98.9576 65.9481 97.9839 66.4712 96.8644C66.9943 95.7449 67.2343 94.514 67.17 93.28C67.21 92.3897 67.027 91.5035 66.6375 90.702C66.2481 89.9004 65.6646 89.2088 64.94 88.69C63.293 87.5604 61.3256 86.9923 59.33 87.07H38.77L35.77 101.93H56.33C59.117 102.065 61.8714 101.282 64.17 99.7ZM45.8 51.95L43 66H59.17C66.1967 66 69.71 63.2533 69.71 57.76C69.7518 56.9149 69.575 56.0734 69.1966 55.3167C68.8182 54.5599 68.2511 53.9136 67.55 53.44C65.6745 52.3362 63.5122 51.8173 61.34 51.95H45.8Z" fill="black"/>
<path d="M173.32 107.74H137.25L127.79 124.22H94.1602L154.41 29.66H185.75L208.17 124.22H176.43L173.32 107.74ZM168.86 84.74L164.27 60.6L150.35 84.78L168.86 84.74Z" fill="black"/>
<path d="M232.22 29.66H274.91C284.816 29.66 293.393 31.28 300.64 34.52C307.456 37.4005 313.262 42.2422 317.32 48.43C321.193 54.4633 323.13 61.5766 323.13 69.77C323.13 80.67 320.61 90.24 315.57 98.48C310.531 106.692 303.243 113.286 294.57 117.48C285.61 121.94 275.41 124.17 263.97 124.17H213.31L232.22 29.66ZM265 99.37C273.193 99.37 279.566 96.78 284.12 91.6C288.673 86.42 290.966 79.7766 291 71.67C291 66.1766 289.31 61.9433 285.93 58.97C282.55 55.9966 277.663 54.51 271.27 54.51H259.1L250.18 99.36L265 99.37Z" fill="black"/>
<path d="M441.47 29.66L382.57 124.22H351.23L330.16 29.66H362.85L374.6 84.78L408.78 29.66H441.47Z" fill="black"/>
<path d="M444.58 29.66H476.46L457.55 124.22H425.67L444.58 29.66Z" fill="black"/>
<path d="M487.4 123.75C481.131 122.353 475.116 119.992 469.57 116.75L481.86 93.24C491.516 98.953 502.521 101.984 513.74 102.02C517.794 102.02 520.9 101.523 523.06 100.53C525.22 99.5367 526.3 98.1867 526.3 96.48C526.3 94.86 525.197 93.5533 522.99 92.56C519.595 91.1944 516.093 90.1107 512.52 89.32C507.197 88.0124 501.963 86.3657 496.85 84.39C492.691 82.7133 488.977 80.0947 486 76.74C482.894 73.2733 481.34 68.7033 481.34 63.03C481.208 56.3406 483.219 49.7844 487.08 44.32C490.907 38.9867 496.424 34.8433 503.63 31.89C510.837 28.9367 519.347 27.4733 529.16 27.5C535.771 27.4538 542.367 28.1549 548.82 29.59C554.344 30.7689 559.653 32.7927 564.56 35.59L553.05 58.84C549.271 56.4615 545.145 54.6837 540.82 53.57C536.345 52.3967 531.737 51.8052 527.11 51.81C522.697 51.81 519.274 52.44 516.84 53.7C514.407 54.96 513.19 56.4467 513.19 58.16C513.19 59.8733 514.294 61.2233 516.5 62.21C520.025 63.6059 523.666 64.69 527.38 65.45C532.635 66.6291 537.803 68.1626 542.85 70.04C547.027 71.6576 550.755 74.2536 553.72 77.61C556.78 81.03 558.31 85.5333 558.31 91.12C558.433 97.7569 556.393 104.254 552.5 109.63C548.627 114.963 543.087 119.083 535.88 121.99C528.674 124.897 520.207 126.36 510.48 126.38C502.71 126.428 494.961 125.545 487.4 123.75Z" fill="black"/>
<path d="M589.599 121C582.69 117.748 576.872 112.562 572.849 106.07C568.866 99.4328 566.829 91.8095 566.969 84.07C566.79 73.7646 569.429 63.6059 574.599 54.69C579.638 46.138 586.99 39.1841 595.81 34.63C604.863 29.8566 615.106 27.47 626.54 27.47C636.173 27.47 644.616 29.25 651.87 32.81C658.778 36.0638 664.596 41.2495 668.62 47.74C672.602 54.3774 674.64 62.0005 674.5 69.74C674.679 80.0453 672.04 90.204 666.87 99.12C661.832 107.673 654.479 114.627 645.659 119.18C636.606 123.953 626.363 126.34 614.93 126.34C605.29 126.367 596.846 124.587 589.599 121ZM630.8 96.62C634.575 93.9633 637.544 90.316 639.38 86.08C641.398 81.5323 642.421 76.6054 642.38 71.63C642.38 66.05 640.736 61.5933 637.45 58.26C634.163 54.9266 629.636 53.26 623.87 53.26C619.177 53.1553 614.571 54.5264 610.7 57.18C606.924 59.837 603.955 63.4842 602.12 67.72C600.099 72.2706 599.076 77.2011 599.12 82.18C599.12 87.7666 600.763 92.2233 604.05 95.55C607.336 98.8766 611.863 100.543 617.63 100.55C622.319 100.664 626.925 99.3035 630.8 96.66V96.62Z" fill="black"/>
<path d="M770.21 82.68C765.75 88.94 759.47 93.6067 751.37 96.68L767.18 124.24H734.08L720.7 100.45H712.87L708.14 124.23H676.25L695.16 29.67H737.58C750.007 29.67 759.673 32.3933 766.58 37.84C773.487 43.2866 776.93 50.92 776.91 60.74C777.067 68.5798 774.72 76.2655 770.21 82.68ZM732.72 54.25H722L717.59 76.4H730.69C735.103 76.4 738.527 75.2966 740.96 73.09C743.393 70.8833 744.61 67.8 744.61 63.84C744.61 57.4466 740.647 54.25 732.72 54.25Z" fill="black"/>
<path d="M849.39 2.22494e-05C845.15 2.22494e-05 848.45 37.66 848.45 37.66C840.92 35.42 816.09 38.72 816.09 38.72C811.15 25 798.55 1.41002 793.73 3.18002C788.91 4.95002 801.85 71.68 785.61 127.18C828.68 120 897.18 126.36 897.18 126.36C889.06 74.62 855 -0.119978 849.39 2.22494e-05ZM819.56 77.19C818.209 77.2272 816.878 76.8627 815.734 76.1427C814.59 75.4227 813.686 74.3796 813.135 73.1454C812.584 71.9112 812.412 70.5413 812.641 69.2092C812.869 67.8771 813.487 66.6427 814.417 65.6622C815.347 64.6816 816.547 63.9991 817.866 63.7009C819.184 63.4027 820.561 63.5023 821.822 63.9871C823.084 64.4719 824.173 65.32 824.953 66.4242C825.732 67.5284 826.166 68.839 826.2 70.19C826.246 71.9982 825.573 73.7507 824.328 75.063C823.083 76.3753 821.368 77.1403 819.56 77.19ZM848.63 76.49C847.279 76.5272 845.948 76.1627 844.804 75.4427C843.66 74.7227 842.756 73.6796 842.205 72.4454C841.654 71.2112 841.482 69.8413 841.711 68.5092C841.939 67.1771 842.557 65.9427 843.487 64.9622C844.417 63.9816 845.617 63.2991 846.936 63.0009C848.254 62.7027 849.631 62.8023 850.892 63.2871C852.154 63.7719 853.243 64.62 854.023 65.7242C854.802 66.8284 855.236 68.139 855.27 69.49C855.313 71.2965 854.639 73.0465 853.394 74.3566C852.15 75.6667 850.437 76.4303 848.63 76.48V76.49Z" fill="black"/>
</svg>
